<svg width="25" height="25" viewBox="0 0 25 25" fill="none" xmlns="http://www.w3.org/2000/svg">
<path d="M24.0126 6.68156L24.0126 6.68158L24.0164 6.68557C24.1677 6.84151 24.289 7.02843 24.3724 7.23611C24.4553 7.44239 24.4988 7.66441 24.5 7.88935C24.4958 8.11602 24.4487 8.33904 24.3618 8.54535C24.2745 8.75303 24.1489 8.93891 23.9937 9.09272L23.9936 9.0926L23.9843 9.10233L10.5994 23.0992L9.79078 23.9448H10.9607H19.3337C19.3909 23.9448 19.4506 23.9683 19.4982 24.0181C19.5465 24.0686 19.5773 24.1417 19.5773 24.2224C19.5773 24.3031 19.5465 24.3762 19.4982 24.4267C19.4506 24.4764 19.3909 24.5 19.3337 24.5H0.743605C0.686395 24.5 0.626748 24.4764 0.579162 24.4267C0.53085 24.3762 0.5 24.3031 0.5 24.2224C0.5 24.1417 0.53085 24.0686 0.579162 24.0181C0.626747 23.9683 0.686392 23.9448 0.743605 23.9448H4.11214H5.27867L4.47423 23.1L0.979958 19.4304C0.979836 19.4303 0.979714 19.4301 0.979592 19.43C0.677719 19.1116 0.504709 18.6768 0.504709 18.2193C0.504709 17.762 0.677598 17.3273 0.979277 17.0089C0.979504 17.0086 0.979731 17.0084 0.979958 17.0082L16.3368 0.97245C16.6459 0.666624 17.0508 0.5 17.4673 0.5C17.8834 0.5 18.288 0.666343 18.5969 0.971677L24.0126 6.68156ZM8.85634 23.9448H9.07002L9.2177 23.7904L12.4449 20.4155L12.7756 20.0698L12.4447 19.7242L6.13154 13.1301L5.76983 12.7523L5.4087 13.1307L1.31235 17.4221C1.31217 17.4223 1.31199 17.4225 1.31181 17.4226C1.20834 17.5306 1.12736 17.6576 1.07244 17.7959C1.01745 17.9344 0.989395 18.0822 0.989395 18.2309C0.989395 18.3797 1.01745 18.5275 1.07244 18.666C1.12745 18.8045 1.20862 18.9317 1.31235 19.0398L5.85517 23.7904L6.00285 23.9448H6.21654H8.85634ZM12.7705 19.3189L13.1319 19.6972L13.4934 19.3191L23.6858 8.66077C23.7902 8.55426 23.8721 8.42828 23.9279 8.29075C23.9842 8.15178 24.0129 8.00315 24.0128 7.85351L24.0128 7.85034C24.0107 7.55146 23.8969 7.26118 23.6893 7.04279L23.688 7.04143L18.2597 1.37269L18.2598 1.37262L18.2525 1.36531C18.042 1.15437 17.7571 1.03262 17.4561 1.03262C17.1552 1.03262 16.8703 1.15436 16.6598 1.36531L16.6597 1.36523L16.6523 1.37294L6.46493 12.0261L6.13467 12.3715L6.46473 12.717L12.7705 19.3189Z" fill="black" stroke="black"/>
</svg>
